<svg xmlns="http://www.w3.org/2000/svg" data-name="Слой 1" viewBox="0 0 128 128" x="0px" y="0px"><title>ic_caramel</title><path d="M105.18,19.4l-55-6.29a18.36,18.36,0,0,0-14.39,4.62L18,33.79a18.33,18.33,0,0,0-6,13.58V96.55a10.19,10.19,0,0,0,8.9,10.09l69.4,8.72a10.22,10.22,0,0,0,9.8-4.55l14.26-22A10.14,10.14,0,0,0,116,83.27V31.53A12.2,12.2,0,0,0,105.18,19.4ZM16,96.55c0-34,0-49.22.06-50.4l10.31,1.34A6.88,6.88,0,0,1,32,54V70a8,8,0,0,0,16,0V57a5.66,5.66,0,0,1,6.61-5.8l4.12.54a6.09,6.09,0,0,1,5.27,6V65a8,8,0,0,0,16,0V62c0-3.68,3-7,6.61-6.49A3.67,3.67,0,0,1,90,59v52.29l-68.61-8.62A6.18,6.18,0,0,1,16,96.55Zm78,14.38V59a7.59,7.59,0,0,0-6.87-7.46C81.08,50.75,76,55.9,76,62v3a4,4,0,0,1-8,0V57.76a10.08,10.08,0,0,0-8.75-10l-4.12-.54A9.65,9.65,0,0,0,44,57V70a4,4,0,0,1-8,0V54a10.83,10.83,0,0,0-9.11-10.48L17,42.24a14.3,14.3,0,0,1,3.74-5.49l17.73-16a14.35,14.35,0,0,1,11.24-3.62l55.05,6.29a8.2,8.2,0,0,1,5.33,2.87l-7.67,9.93C100.81,38.39,100,42,100,47v56.61C97.16,107.57,96.76,109.73,94,110.93Zm18-27.66a6.17,6.17,0,0,1-1,3.36l-7,10.81V47c0-4,.59-7,1.6-8.45l6.31-8.16a8.49,8.49,0,0,1,.09,1.14Z"></path></svg>